<svg width="144" height="144" viewBox="0 0 144 144" fill="none" xmlns="http://www.w3.org/2000/svg">
<path d="M18.72 38.88C17.9562 38.88 17.2236 39.1834 16.6835 39.7235C16.1434 40.2636 15.84 40.9962 15.84 41.76C15.84 42.5238 16.1434 43.2564 16.6835 43.7965C17.2236 44.3366 17.9562 44.64 18.72 44.64C19.4838 44.64 20.2164 44.3366 20.7565 43.7965C21.2966 43.2564 21.6 42.5238 21.6 41.76C21.6 40.9962 21.2966 40.2636 20.7565 39.7235C20.2164 39.1834 19.4838 38.88 18.72 38.88Z" fill="#EE3E54"/>
<path d="M110.88 17.28C110.498 17.28 110.132 17.4317 109.862 17.7018C109.592 17.9718 109.44 18.3381 109.44 18.72C109.44 19.1019 109.592 19.4682 109.862 19.7383C110.132 20.0083 110.498 20.16 110.88 20.16C111.262 20.16 111.628 20.0083 111.898 19.7383C112.168 19.4682 112.32 19.1019 112.32 18.72C112.32 18.3381 112.168 17.9718 111.898 17.7018C111.628 17.4317 111.262 17.28 110.88 17.28Z" fill="#F1BC19"/>
<path d="M72 18.72C57.8693 18.72 44.3173 24.3334 34.3254 34.3253C24.3334 44.3173 18.72 57.8692 18.72 72C18.72 86.1307 24.3334 99.6827 34.3254 109.675C44.3173 119.667 57.8693 125.28 72 125.28C86.1307 125.28 99.6827 119.667 109.675 109.675C119.667 99.6827 125.28 86.1307 125.28 72C125.28 57.8692 119.667 44.3173 109.675 34.3253C99.6827 24.3334 86.1307 18.72 72 18.72Z" fill="#FCE0A2"/>
<path d="M119.52 15.84C117.992 15.84 116.527 16.4468 115.447 17.527C114.367 18.6072 113.76 20.0723 113.76 21.6C113.76 23.1276 114.367 24.5927 115.447 25.6729C116.527 26.7531 117.992 27.36 119.52 27.36C121.048 27.36 122.513 26.7531 123.593 25.6729C124.673 24.5927 125.28 23.1276 125.28 21.6C125.28 20.0723 124.673 18.6072 123.593 17.527C122.513 16.4468 121.048 15.84 119.52 15.84Z" fill="#F1BC19"/>
<path d="M125.28 31.6801C124.516 31.6801 123.784 31.9835 123.244 32.5236C122.703 33.0637 122.4 33.7962 122.4 34.5601C122.4 35.3239 122.703 36.0564 123.244 36.5965C123.784 37.1366 124.516 37.4401 125.28 37.4401C126.044 37.4401 126.776 37.1366 127.316 36.5965C127.857 36.0564 128.16 35.3239 128.16 34.5601C128.16 33.7962 127.857 33.0637 127.316 32.5236C126.776 31.9835 126.044 31.6801 125.28 31.6801Z" fill="#EE3E54"/>
<path d="M116.64 106.56C115.876 106.56 115.144 106.863 114.604 107.403C114.063 107.944 113.76 108.676 113.76 109.44C113.76 110.204 114.063 110.936 114.604 111.476C115.144 112.017 115.876 112.32 116.64 112.32C117.404 112.32 118.136 112.017 118.676 111.476C119.217 110.936 119.52 110.204 119.52 109.44C119.52 108.676 119.217 107.944 118.676 107.403C118.136 106.863 117.404 106.56 116.64 106.56ZM21.6 84.96C20.0723 84.96 18.6073 85.5668 17.5271 86.647C16.4469 87.7272 15.84 89.1923 15.84 90.72C15.84 92.2476 16.4469 93.7127 17.5271 94.7929C18.6073 95.8731 20.0723 96.48 21.6 96.48C23.1276 96.48 24.5927 95.8731 25.6729 94.7929C26.7531 93.7127 27.36 92.2476 27.36 90.72C27.36 89.1923 26.7531 87.7272 25.6729 86.647C24.5927 85.5668 23.1276 84.96 21.6 84.96Z" fill="#FBCD59"/>
<path d="M36 122.4C35.2362 122.4 34.5036 122.703 33.9635 123.243C33.4234 123.784 33.12 124.516 33.12 125.28C33.12 126.044 33.4234 126.776 33.9635 127.316C34.5036 127.856 35.2362 128.16 36 128.16C36.7638 128.16 37.4964 127.856 38.0365 127.316C38.5766 126.776 38.88 126.044 38.88 125.28C38.88 124.516 38.5766 123.784 38.0365 123.243C37.4964 122.703 36.7638 122.4 36 122.4Z" fill="#EE3E54"/>
<path d="M26.64 73.4399C25.6852 73.4399 24.7696 73.8192 24.0944 74.4944C23.4193 75.1695 23.04 76.0852 23.04 77.0399C23.04 77.9947 23.4193 78.9104 24.0944 79.5855C24.7696 80.2607 25.6852 80.6399 26.64 80.6399C27.5948 80.6399 28.5105 80.2607 29.1856 79.5855C29.8607 78.9104 30.24 77.9947 30.24 77.0399C30.24 76.0852 29.8607 75.1695 29.1856 74.4944C28.5105 73.8192 27.5948 73.4399 26.64 73.4399Z" fill="white"/>
<path d="M30.24 95.04C29.8581 95.04 29.4918 95.1918 29.2218 95.4618C28.9517 95.7319 28.8 96.0981 28.8 96.48C28.8 96.862 28.9517 97.2282 29.2218 97.4983C29.4918 97.7683 29.8581 97.92 30.24 97.92C30.6219 97.92 30.9882 97.7683 31.2582 97.4983C31.5283 97.2282 31.68 96.862 31.68 96.48C31.68 96.0981 31.5283 95.7319 31.2582 95.4618C30.9882 95.1918 30.6219 95.04 30.24 95.04Z" fill="#F1BC19"/>
<path d="M115.2 47.52C114.818 47.52 114.452 47.6717 114.182 47.9418C113.912 48.2118 113.76 48.5781 113.76 48.96C113.76 49.3419 113.912 49.7082 114.182 49.9783C114.452 50.2483 114.818 50.4 115.2 50.4C115.582 50.4 115.948 50.2483 116.218 49.9783C116.488 49.7082 116.64 49.3419 116.64 48.96C116.64 48.5781 116.488 48.2118 116.218 47.9418C115.948 47.6717 115.582 47.52 115.2 47.52Z" fill="white"/>
<path d="M60.768 87.5519V78.9911C60.768 74.5012 64.4198 70.8494 68.9098 70.8494H73.6488C78.1387 70.8494 81.7906 74.5012 81.7906 78.9911V87.5519H60.768Z" fill="#48BED8"/>
<path d="M73.6503 71.8561C77.5843 71.8561 80.784 75.0572 80.784 78.9898V86.5441H61.776V78.9898C61.776 75.0572 64.9757 71.8561 68.9098 71.8561H73.6503ZM73.6503 69.8401H68.9098C63.8568 69.8401 59.76 73.9369 59.76 78.9898V88.5601H82.8V78.9898C82.8 73.9369 78.7032 69.8401 73.6503 69.8401Z" fill="#472B29"/>
<path d="M65.52 88.56C65.1225 88.56 64.8 88.2375 64.8 87.84V78.48C64.8 78.0826 65.1225 77.76 65.52 77.76C65.9174 77.76 66.24 78.0826 66.24 78.48V87.84C66.24 88.2375 65.9174 88.56 65.52 88.56ZM77.04 88.56C76.6425 88.56 76.32 88.2375 76.32 87.84V78.48C76.32 78.0826 76.6425 77.76 77.04 77.76C77.4374 77.76 77.76 78.0826 77.76 78.48V87.84C77.76 88.2375 77.4374 88.56 77.04 88.56Z" fill="#472B29"/>
<path d="M71.28 57.168C69.4468 57.168 67.6887 57.8962 66.3925 59.1924C65.0962 60.4887 64.368 62.2468 64.368 64.08C64.368 65.9131 65.0962 67.6712 66.3925 68.9675C67.6887 70.2637 69.4468 70.992 71.28 70.992C73.1132 70.992 74.8713 70.2637 76.1675 68.9675C77.4638 67.6712 78.192 65.9131 78.192 64.08C78.192 62.2468 77.4638 60.4887 76.1675 59.1924C74.8713 57.8962 73.1132 57.168 71.28 57.168Z" fill="#FDDBBC"/>
<path d="M71.28 58.176C74.5358 58.176 77.184 60.8242 77.184 64.08C77.184 67.3359 74.5358 69.984 71.28 69.984C68.0241 69.984 65.376 67.3359 65.376 64.08C65.376 60.8242 68.0241 58.176 71.28 58.176ZM71.28 56.16C66.9053 56.16 63.36 59.7053 63.36 64.08C63.36 68.4548 66.9053 72 71.28 72C75.6547 72 79.2 68.4548 79.2 64.08C79.2 59.7053 75.6547 56.16 71.28 56.16Z" fill="#472B29"/>
<path d="M71.28 103.68C70.8826 103.68 70.56 103.357 70.56 102.96V92.8799C70.56 92.4825 70.8826 92.1599 71.28 92.1599C71.6774 92.1599 72 92.4825 72 92.8799V102.96C72 103.357 71.6774 103.68 71.28 103.68Z" fill="#472B29"/>
<path d="M43.2 93.168C42.576 93.168 41.958 93.2909 41.3815 93.5297C40.8049 93.7685 40.2811 94.1185 39.8398 94.5598C39.3986 95.0011 39.0485 95.5249 38.8097 96.1015C38.5709 96.678 38.448 97.2959 38.448 97.92C38.448 98.544 38.5709 99.1619 38.8097 99.7385C39.0485 100.315 39.3986 100.839 39.8398 101.28C40.2811 101.721 40.8049 102.071 41.3815 102.31C41.958 102.549 42.576 102.672 43.2 102.672C43.824 102.672 44.442 102.549 45.0185 102.31C45.595 102.071 46.1189 101.721 46.5602 101.28C47.0014 100.839 47.3515 100.315 47.5903 99.7385C47.8291 99.1619 47.952 98.544 47.952 97.92C47.952 97.2959 47.8291 96.678 47.5903 96.1015C47.3515 95.5249 47.0014 95.0011 46.5602 94.5598C46.1189 94.1185 45.595 93.7685 45.0185 93.5297C44.442 93.2909 43.824 93.168 43.2 93.168Z" fill="#A1D3A2"/>
<path d="M43.2 94.1759C45.265 94.1759 46.944 95.8564 46.944 97.9199C46.944 99.9834 45.265 101.664 43.2 101.664C41.135 101.664 39.456 99.9834 39.456 97.9199C39.456 95.8564 41.135 94.1759 43.2 94.1759ZM43.2 92.1599C40.019 92.1599 37.44 94.739 37.44 97.9199C37.44 101.101 40.019 103.68 43.2 103.68C46.381 103.68 48.96 101.101 48.96 97.9199C48.96 94.739 46.381 92.1599 43.2 92.1599Z" fill="#472B29"/>
<path d="M72 101.808C70.7397 101.808 69.531 102.309 68.6398 103.2C67.7486 104.091 67.248 105.3 67.248 106.56C67.248 107.82 67.7486 109.029 68.6398 109.92C69.531 110.811 70.7397 111.312 72 111.312C73.2603 111.312 74.469 110.811 75.3602 109.92C76.2513 109.029 76.752 107.82 76.752 106.56C76.752 105.3 76.2513 104.091 75.3602 103.2C74.469 102.309 73.2603 101.808 72 101.808Z" fill="#A1D3A2"/>
<path d="M72 102.816C74.065 102.816 75.744 104.497 75.744 106.56C75.744 108.624 74.065 110.304 72 110.304C69.935 110.304 68.256 108.624 68.256 106.56C68.256 104.497 69.935 102.816 72 102.816ZM72 100.8C68.819 100.8 66.24 103.379 66.24 106.56C66.24 109.741 68.819 112.32 72 112.32C75.181 112.32 77.76 109.741 77.76 106.56C77.76 103.379 75.181 100.8 72 100.8Z" fill="#472B29"/>
<path d="M99.36 93.168C98.736 93.168 98.118 93.2909 97.5415 93.5297C96.965 93.7685 96.4411 94.1185 95.9998 94.5598C95.5586 95.0011 95.2085 95.5249 94.9697 96.1015C94.7309 96.678 94.608 97.2959 94.608 97.92C94.608 98.544 94.7309 99.1619 94.9697 99.7385C95.2085 100.315 95.5586 100.839 95.9998 101.28C96.4411 101.721 96.965 102.071 97.5415 102.31C98.118 102.549 98.736 102.672 99.36 102.672C99.984 102.672 100.602 102.549 101.179 102.31C101.755 102.071 102.279 101.721 102.72 101.28C103.161 100.839 103.511 100.315 103.75 99.7385C103.989 99.1619 104.112 98.544 104.112 97.92C104.112 97.2959 103.989 96.678 103.75 96.1015C103.511 95.5249 103.161 95.0011 102.72 94.5598C102.279 94.1185 101.755 93.7685 101.179 93.5297C100.602 93.2909 99.984 93.168 99.36 93.168Z" fill="#A1D3A2"/>
<path d="M99.36 94.1759C101.425 94.1759 103.104 95.8564 103.104 97.9199C103.104 99.9834 101.425 101.664 99.36 101.664C97.295 101.664 95.616 99.9834 95.616 97.9199C95.616 95.8564 97.295 94.1759 99.36 94.1759ZM99.36 92.1599C96.179 92.1599 93.6 94.739 93.6 97.9199C93.6 101.101 96.179 103.68 99.36 103.68C102.541 103.68 105.12 101.101 105.12 97.9199C105.12 94.739 102.541 92.1599 99.36 92.1599Z" fill="#472B29"/>
<path d="M46.8461 94.9319C46.6618 94.9319 46.4775 94.8614 46.3363 94.7217C46.0555 94.4409 46.0555 93.9844 46.3363 93.7036L53.3895 86.6505C53.6702 86.3682 54.1613 86.3366 54.4421 86.6159C54.7214 86.8967 54.7575 87.3186 54.4752 87.6009L47.353 94.7231C47.2147 94.8614 47.0304 94.9319 46.8461 94.9319Z" fill="#472B29"/>
<path d="M94.9781 94.932C94.7938 94.932 94.6094 94.8614 94.4683 94.7217L88.4923 88.7458C88.213 88.4664 88.1813 87.984 88.4606 87.7018C88.7371 87.4224 89.1605 87.3864 89.4471 87.6643L95.4878 93.7037C95.7686 93.9845 95.7686 94.4409 95.4878 94.7217C95.3467 94.8614 95.1624 94.932 94.9781 94.932Z" fill="#472B29"/>
<path d="M71.28 51.8401C70.8826 51.8401 70.56 51.5175 70.56 51.1201V41.1063C70.56 40.7089 70.8826 40.3546 71.28 40.3546C71.6774 40.3546 72 40.6426 72 41.0415V51.1215C72 51.5175 71.6774 51.8401 71.28 51.8401Z" fill="#472B29"/>
<path d="M99.36 41.328C98.0997 41.328 96.891 41.8287 95.9998 42.7198C95.1087 43.611 94.608 44.8197 94.608 46.08C94.608 47.3403 95.1087 48.549 95.9998 49.4402C96.891 50.3313 98.0997 50.832 99.36 50.832C100.62 50.832 101.829 50.3313 102.72 49.4402C103.611 48.549 104.112 47.3403 104.112 46.08C104.112 44.8197 103.611 43.611 102.72 42.7198C101.829 41.8287 100.62 41.328 99.36 41.328Z" fill="#A1D3A2"/>
<path d="M99.36 42.3359C101.425 42.3359 103.104 44.0164 103.104 46.0799C103.104 48.1435 101.425 49.8239 99.36 49.8239C97.295 49.8239 95.616 48.1435 95.616 46.0799C95.616 44.0164 97.295 42.3359 99.36 42.3359ZM99.36 40.3199C96.179 40.3199 93.6 42.899 93.6 46.0799C93.6 49.2609 96.179 51.8399 99.36 51.8399C102.541 51.8399 105.12 49.2609 105.12 46.0799C105.12 42.899 102.541 40.3199 99.36 40.3199Z" fill="#472B29"/>
<path d="M72 31.248C70.7397 31.248 69.531 31.7487 68.6398 32.6399C67.7486 33.531 67.248 34.7397 67.248 36C67.248 37.2604 67.7486 38.469 68.6398 39.3602C69.531 40.2514 70.7397 40.752 72 40.752C73.2603 40.752 74.469 40.2514 75.3602 39.3602C76.2513 38.469 76.752 37.2604 76.752 36C76.752 34.7397 76.2513 33.531 75.3602 32.6399C74.469 31.7487 73.2603 31.248 72 31.248Z" fill="#A1D3A2"/>
<path d="M72 32.256C74.065 32.256 75.744 33.9365 75.744 36C75.744 38.0635 74.065 39.744 72 39.744C69.935 39.744 68.256 38.0635 68.256 36C68.256 33.9365 69.935 32.256 72 32.256ZM72 30.24C68.819 30.24 66.24 32.819 66.24 36C66.24 39.181 68.819 41.76 72 41.76C75.181 41.76 77.76 39.181 77.76 36C77.76 32.819 75.181 30.24 72 30.24Z" fill="#472B29"/>
<path d="M43.2 41.328C41.9397 41.328 40.731 41.8287 39.8398 42.7198C38.9487 43.611 38.448 44.8197 38.448 46.08C38.448 47.3403 38.9487 48.549 39.8398 49.4402C40.731 50.3313 41.9397 50.832 43.2 50.832C44.4603 50.832 45.669 50.3313 46.5602 49.4402C47.4513 48.549 47.952 47.3403 47.952 46.08C47.952 44.8197 47.4513 43.611 46.5602 42.7198C45.669 41.8287 44.4603 41.328 43.2 41.328Z" fill="#A1D3A2"/>
<path d="M43.2 42.3359C45.265 42.3359 46.944 44.0164 46.944 46.0799C46.944 48.1435 45.265 49.8239 43.2 49.8239C41.135 49.8239 39.456 48.1435 39.456 46.0799C39.456 44.0164 41.135 42.3359 43.2 42.3359ZM43.2 40.3199C40.019 40.3199 37.44 42.899 37.44 46.0799C37.44 49.2609 40.019 51.8399 43.2 51.8399C46.381 51.8399 48.96 49.2609 48.96 46.0799C48.96 42.899 46.381 40.3199 43.2 40.3199Z" fill="#472B29"/>
<path d="M88.6075 58.2696C88.4261 58.2696 88.2475 58.2063 88.115 58.0752C87.8357 57.7944 87.7997 57.3725 88.0819 57.0903L95.2042 49.968C95.485 49.6872 95.9414 49.6872 96.2222 49.968C96.503 50.2488 96.503 50.7053 96.2222 50.9861L89.1691 58.0392C89.0194 58.189 88.812 58.2696 88.6075 58.2696Z" fill="#472B29"/>
<path d="M53.5752 57.217C53.4111 57.217 53.2469 57.1551 53.1144 57.0255L47.0736 50.9861C46.7928 50.7053 46.7928 50.2488 47.0736 49.968C47.3544 49.6872 47.8109 49.6872 48.0917 49.968L54.0677 55.944C54.347 56.2234 54.3787 56.7058 54.0994 56.988C53.9525 57.1392 53.7639 57.217 53.5752 57.217Z" fill="#472B29"/>
</svg>
