<svg width="28" height="28" viewBox="0 0 28 28" fill="none" xmlns="http://www.w3.org/2000/svg">
<path d="M0 24.0801V22.5226C1.68656 21.0548 11.3619 12.6198 12.1275 11.9526C12.915 11.2657 13.7003 11.2001 14 11.2001C14.2997 11.2001 15.085 11.2657 15.8725 11.9526C16.6666 12.6438 26.9062 21.571 28 22.5226V24.0801H0ZM0 21.0351V6.98258L8.47 13.6676C5.72469 16.0563 1.80906 19.4601 0 21.0351ZM28 21.0351C26.2916 19.5476 22.3147 16.0913 19.53 13.6676L28 7.00008V21.0351ZM9.3275 12.9151L0 5.56508V3.92008H28V5.58258L18.6725 12.9151C17.5875 11.9701 16.8066 11.2854 16.6075 11.1126C15.5334 10.1785 14.4244 10.0801 14 10.0801C13.5756 10.0801 12.4666 10.1763 11.3925 11.1126C11.1956 11.2832 10.4147 11.9679 9.3275 12.9151Z" fill="#F87B07"/>
</svg>
