<?xml version="1.0" encoding="utf-8"?>
<svg xmlns="http://www.w3.org/2000/svg" viewBox="0 0 24 24" width="384" height="384">
  <g opacity=".35">
    <path d="M8.513,9.181H6.997c-0.251,0-0.455,0.204-0.455,0.455v6.367c0,0.251,0.204,0.455,0.455,0.455h1.516 c0.251,0,0.455-0.204,0.455-0.455V9.636C8.968,9.384,8.764,9.181,8.513,9.181z" fill="#616161" />
    <path d="M7.755,5.543c-0.668,0-1.213,0.545-1.213,1.213s0.545,1.213,1.213,1.213s1.213-0.545,1.213-1.213S8.423,5.543,7.755,5.543z" fill="#616161" />
    <path d="M14.658,9.181c-1.137,0-1.71,0.455-2.023,1.061h-0.028V9.636c0-0.251-0.204-0.455-0.455-0.455h-1.516 c-0.251,0-0.455,0.204-0.455,0.455v6.367c0,0.251,0.204,0.455,0.455,0.455h1.516c0.251,0,0.455-0.204,0.455-0.455v-2.795 c0-1.298,0.303-1.914,1.308-1.914c0.815,0,1.118,0.616,1.118,1.98v2.729c0,0.251,0.204,0.455,0.455,0.455h1.516 c0.251,0,0.455-0.204,0.455-0.455v-3.136C17.457,10.782,17.022,9.181,14.658,9.181z" fill="#616161" />
  </g>
  <path d="M12,2C6.477,2,2,6.477,2,12c0,5.523,4.477,10,10,10s10-4.477,10-10C22,6.477,17.523,2,12,2z M8.968,16.003c0,0.251-0.204,0.455-0.455,0.455H6.997c-0.251,0-0.455-0.204-0.455-0.455V9.636c0-0.251,0.204-0.455,0.455-0.455h1.516c0.251,0,0.455,0.204,0.455,0.455V16.003z M7.755,7.968c-0.668,0-1.213-0.545-1.213-1.213s0.545-1.213,1.213-1.213s1.213,0.545,1.213,1.213S8.423,7.968,7.755,7.968z M17.457,16.003c0,0.251-0.204,0.455-0.455,0.455h-1.516c-0.251,0-0.455-0.204-0.455-0.455v-2.729c0-1.364-0.303-1.98-1.118-1.98c-1.004,0-1.308,0.616-1.308,1.914v2.795c0,0.251-0.204,0.455-0.455,0.455h-1.516c-0.251,0-0.455-0.204-0.455-0.455V9.636c0-0.251,0.204-0.455,0.455-0.455h1.516c0.251,0,0.455,0.204,0.455,0.455v0.606h0.028c0.313-0.606,0.886-1.061,2.023-1.061c2.364,0,2.8,1.601,2.8,3.686V16.003z" fill="#616161" />
</svg>