<svg width="42" height="42" viewBox="0 0 42 42" fill="none" xmlns="http://www.w3.org/2000/svg">
<path d="M36.75 32.375C36.75 34.7917 34.7917 36.75 32.375 36.75H9.625C7.20913 36.75 5.25 34.7917 5.25 32.375V9.625C5.25 7.20825 7.20913 5.25 9.625 5.25H32.375C34.7917 5.25 36.75 7.20825 36.75 9.625V32.375Z" fill="#3F51B5"/>
<path d="M30.072 21.875H27.125V33.25H22.75V21.875H20.125V18.375H22.75V16.2663C22.7517 13.1968 24.0266 11.375 27.643 11.375H30.625V14.875H28.6239C27.216 14.875 27.125 15.4 27.125 16.3826V18.375H30.625L30.072 21.875Z" fill="white"/>
</svg>
