<svg width="34" height="34" viewBox="0 0 34 34" fill="none" xmlns="http://www.w3.org/2000/svg">
<path d="M32.6577 7.80575C31.5591 8.29238 30.3776 8.61679 29.1309 8.7705C30.3981 8.01825 31.3735 6.81834 31.8311 5.40025C30.6453 6.09513 29.3314 6.60584 27.9338 6.875C26.8175 5.69209 25.2252 4.95825 23.4614 4.95825C20.0735 4.95825 17.3265 7.68038 17.3265 11.0372C17.3265 11.5125 17.3825 11.975 17.4866 12.4241C12.3895 12.1684 7.86816 9.74517 4.84358 6.0675C4.31233 6.96638 4.01341 8.01825 4.01341 9.12892C4.01341 11.239 5.09362 13.097 6.7412 14.1914C5.73537 14.1609 4.78904 13.8811 3.96029 13.432C3.96029 13.4505 3.96029 13.4774 3.96029 13.5036C3.96029 16.4524 6.07537 18.9082 8.87895 19.467C8.36683 19.6073 7.82495 19.6852 7.26679 19.6852C6.87083 19.6852 6.48479 19.6406 6.11079 19.5733C6.89137 21.983 9.15591 23.7447 11.8391 23.7971C9.73958 25.4248 7.09537 26.3995 4.22025 26.3995C3.7237 26.3995 3.23779 26.3712 2.75754 26.3131C5.47541 28.0336 8.70045 29.0416 12.1628 29.0416C23.4444 29.0416 29.6168 19.7773 29.6168 11.7398C29.6168 11.4763 29.6083 11.2143 29.5963 10.955C30.8005 10.1043 31.8382 9.03188 32.6577 7.80575Z" fill="url(#paint0_linear_82_303)"/>
<defs>
<linearGradient id="paint0_linear_82_303" x1="7.32487" y1="5.88759" x2="28.8986" y2="27.4613" gradientUnits="userSpaceOnUse">
<stop stop-color="#2AA4F4"/>
<stop offset="1" stop-color="#007AD9"/>
</linearGradient>
</defs>
</svg>
