<svg width="24" height="24" viewBox="0 0 24 24" fill="none" xmlns="http://www.w3.org/2000/svg">
<path d="M20.6647 16.6407C19.2368 15.4184 17.7837 14.6756 16.3738 15.8979L15.53 16.6335C14.9135 17.1708 13.7668 19.6732 9.33534 14.571C4.90385 9.47967 7.53966 8.6864 8.15986 8.15635L9.00721 7.41717C10.4099 6.19481 9.87981 4.65515 8.86659 3.06861L8.25721 2.10948C7.24039 0.530149 6.12981 -0.508313 4.72356 0.710437L3.96274 1.3775C3.33894 1.82823 1.60096 3.30299 1.17909 6.10106C0.670673 9.45803 2.27524 13.3054 5.94231 17.5241C9.60577 21.7465 13.1971 23.8667 16.5937 23.8306C19.4171 23.7982 21.1262 22.2838 21.6599 21.7321L22.4207 21.065C23.8269 19.8463 22.9543 18.6023 21.5228 17.3799L20.6647 16.6407Z" fill="#F87B07"/>
</svg>
