<svg width="122" height="122" viewBox="0 0 122 122" fill="none" xmlns="http://www.w3.org/2000/svg">
<path d="M61 117.425C29.887 117.425 4.57501 92.113 4.57501 61C4.57501 29.8869 29.887 4.57495 61 4.57495C92.1131 4.57495 117.425 29.8869 117.425 61C117.425 92.113 92.1131 117.425 61 117.425Z" fill="#FFEEA3"/>
<path d="M61 6.10005C91.2712 6.10005 115.9 30.7288 115.9 61C115.9 91.2713 91.2712 115.9 61 115.9C30.7287 115.9 6.09999 91.2713 6.09999 61C6.09999 30.7288 30.7287 6.10005 61 6.10005ZM61 3.05005C28.9963 3.05005 3.04999 28.9964 3.04999 61C3.04999 93.0037 28.9963 118.95 61 118.95C93.0036 118.95 118.95 93.0037 118.95 61C118.95 28.9964 93.0036 3.05005 61 3.05005Z" fill="#BA9B48"/>
<path d="M4.62686 62.525C4.59636 62.0217 4.57501 61.5124 4.57501 61C4.57501 30.3993 29.0665 5.40761 59.475 4.59631V62.525H4.62686Z" fill="#F78F8F"/>
<path d="M57.95 6.1824V61H6.09999C6.09999 31.7505 29.0909 7.77145 57.95 6.1824ZM61 3.05005C28.9963 3.05005 3.04999 28.9964 3.04999 61C3.04999 62.0309 3.13234 63.0374 3.20249 64.05H61V3.05005Z" fill="#C74343"/>
<path d="M61 117.425C30.3993 117.425 5.40764 92.9365 4.59634 62.5249H60.3778L100.223 101.565C89.6487 111.804 75.7803 117.425 61 117.425Z" fill="#FFC49C"/>
<path d="M59.7556 64.05L98.0209 101.544C87.8857 110.825 74.8531 115.9 61 115.9C31.7505 115.9 7.77139 92.9091 6.18234 64.05H59.7556ZM61 61H3.04999C3.04999 93.0037 28.9963 118.95 61 118.95C77.2168 118.95 91.8751 112.289 102.395 101.556L61 61Z" fill="#A16A4A"/>
<path d="M89.0875 5.0874C101.431 10.5561 111.038 20.374 116.242 32.879C116.544 33.6019 116.803 34.3369 117.053 35.0689L71.858 53.8691L89.0875 5.0874Z" fill="#F78F8F"/>
<path d="M89.9689 7.1767C101.233 12.5996 109.995 21.835 114.833 33.4677C114.936 33.7147 115.034 33.9648 115.128 34.218L74.4383 51.1455L89.9689 7.1767ZM88.1908 3.05005L69.2777 56.5928L118.95 35.929C118.541 34.7121 118.148 33.4951 117.648 32.2934C111.892 18.4617 101.047 8.29605 88.1908 3.05005Z" fill="#C74343"/>
</svg>
