<svg width="180" height="180" viewBox="0 0 180 180" fill="none" xmlns="http://www.w3.org/2000/svg">
<path d="M23.175 48.5244C21.186 48.5244 19.575 50.1354 19.575 52.1244C19.575 54.1134 21.186 55.7244 23.175 55.7244C25.164 55.7244 26.775 54.1134 26.775 52.1244C26.775 50.1354 25.164 48.5244 23.175 48.5244Z" fill="#EE3E54"/>
<path d="M138.375 21.5244C137.383 21.5244 136.575 22.3326 136.575 23.3244C136.575 24.3162 137.383 25.1244 138.375 25.1244C139.367 25.1244 140.175 24.3162 140.175 23.3244C140.175 22.3326 139.367 21.5244 138.375 21.5244Z" fill="#F1BC19"/>
<path d="M89.775 23.3243C52.9938 23.3243 23.175 53.1431 23.175 89.9243C23.175 126.706 52.9938 156.524 89.775 156.524C126.556 156.524 156.375 126.706 156.375 89.9243C156.375 53.1431 126.556 23.3243 89.775 23.3243Z" fill="#FCE0A2"/>
<path d="M149.175 19.7244C145.195 19.7244 141.975 22.9446 141.975 26.9244C141.975 30.9042 145.195 34.1244 149.175 34.1244C153.155 34.1244 156.375 30.9042 156.375 26.9244C156.375 22.9446 153.155 19.7244 149.175 19.7244Z" fill="#F1BC19"/>
<path d="M156.375 39.5244C154.386 39.5244 152.775 41.1354 152.775 43.1244C152.775 45.1134 154.386 46.7244 156.375 46.7244C158.364 46.7244 159.975 45.1134 159.975 43.1244C159.975 41.1354 158.364 39.5244 156.375 39.5244Z" fill="#EE3E54"/>
<path d="M145.575 133.125C143.586 133.125 141.975 134.736 141.975 136.725C141.975 138.714 143.586 140.325 145.575 140.325C147.564 140.325 149.175 138.714 149.175 136.725C149.175 134.736 147.564 133.125 145.575 133.125ZM26.775 106.125C22.7952 106.125 19.575 109.345 19.575 113.325C19.575 117.304 22.7952 120.525 26.775 120.525C30.7548 120.525 33.975 117.304 33.975 113.325C33.975 109.345 30.7548 106.125 26.775 106.125Z" fill="#FBCD59"/>
<path d="M44.775 152.924C42.786 152.924 41.175 154.535 41.175 156.524C41.175 158.513 42.786 160.124 44.775 160.124C46.764 160.124 48.375 158.513 48.375 156.524C48.375 154.535 46.764 152.924 44.775 152.924Z" fill="#EE3E54"/>
<path d="M33.075 73.7244C30.5928 73.7244 28.575 75.7422 28.575 78.2244C28.575 80.7066 30.5928 82.7244 33.075 82.7244C35.5572 82.7244 37.575 80.7066 37.575 78.2244C37.575 75.7422 35.5572 73.7244 33.075 73.7244Z" fill="white"/>
<path d="M37.575 116.924C36.5832 116.924 35.775 117.733 35.775 118.724C35.775 119.716 36.5832 120.524 37.575 120.524C38.5668 120.524 39.375 119.716 39.375 118.724C39.375 117.733 38.5668 116.924 37.575 116.924Z" fill="#F1BC19"/>
<path d="M143.775 57.5244C142.783 57.5244 141.975 58.3326 141.975 59.3244C141.975 60.3162 142.783 61.1244 143.775 61.1244C144.767 61.1244 145.575 60.3162 145.575 59.3244C145.575 58.3326 144.767 57.5244 143.775 57.5244Z" fill="white"/>
<path d="M128.259 49.5181L94.6602 46.4635C93.9636 46.4005 93.276 46.6489 92.781 47.1439L47.745 92.1799C45.9054 94.0195 45.9054 97.0039 47.745 98.8435L81.0666 132.165C82.9062 134.005 85.8906 134.005 87.7302 132.165L132.766 87.1291C133.261 86.6341 133.51 85.9465 133.447 85.2499L130.392 51.6511C130.289 50.5189 129.391 49.6207 128.259 49.5181ZM117.045 70.4539C114.977 72.5221 111.616 72.5221 109.548 70.4539C107.48 68.3857 107.48 65.0251 109.548 62.9569C111.616 60.8887 114.977 60.8887 117.045 62.9569C119.113 65.0233 119.113 68.3857 117.045 70.4539Z" fill="#FDF5A9"/>
<path d="M84.3984 134.806C82.8018 134.806 81.3024 134.185 80.1738 133.056L46.8522 99.7363C45.7236 98.6077 45.1026 97.1083 45.1026 95.5135C45.1026 93.9187 45.7236 92.4193 46.8522 91.2907L91.89 46.2547C92.6496 45.4951 93.69 45.1207 94.7754 45.2107L128.374 48.2653C130.115 48.4237 131.49 49.8007 131.647 51.5413L134.701 85.1383C134.798 86.2093 134.419 87.2605 133.657 88.0219L88.6194 133.056C87.4926 134.185 85.9932 134.806 84.3984 134.806ZM94.446 47.7145C94.1562 47.7145 93.879 47.8279 93.672 48.0349L48.636 93.0727C47.2896 94.4191 47.2896 96.6079 48.636 97.9543L81.9558 131.274C83.2572 132.577 85.5288 132.577 86.8374 131.274L131.875 86.2381C132.106 86.0077 132.221 85.6891 132.192 85.3651L129.137 51.7663C129.091 51.2389 128.673 50.8213 128.146 50.7745L94.5468 47.7199C94.5126 47.7163 94.4784 47.7145 94.446 47.7145Z" fill="#472B29"/>
<path d="M84.1752 128.624C83.9358 128.624 83.7072 128.529 83.538 128.362L55.179 100.001C54.828 99.6499 54.828 99.0793 55.179 98.7283C55.53 98.3773 56.1006 98.3773 56.4516 98.7283L84.1752 126.45L92.772 117.851C93.123 117.5 93.6936 117.5 94.0446 117.851C94.3956 118.202 94.3956 118.773 94.0446 119.124L84.8106 128.358C84.6414 128.529 84.4128 128.624 84.1752 128.624ZM97.254 115.542C97.0236 115.542 96.7932 115.454 96.6168 115.279C96.2658 114.928 96.2658 114.358 96.6168 114.007L98.064 112.561C98.415 112.21 98.9856 112.21 99.3366 112.561C99.6876 112.912 99.6876 113.483 99.3366 113.834L97.8894 115.279C97.7148 115.456 97.4844 115.542 97.254 115.542ZM101.479 111.321C101.248 111.321 101.018 111.233 100.841 111.058C100.49 110.707 100.49 110.137 100.841 109.786L126.864 83.7595L125.896 73.0891C125.852 72.5941 126.216 72.1549 126.711 72.1117C127.181 72.0595 127.643 72.4303 127.688 72.9271L128.696 84.0169C128.722 84.2833 128.624 84.5461 128.435 84.7351L102.114 111.056C101.939 111.233 101.709 111.321 101.479 111.321ZM59.4864 89.3359C59.256 89.3359 59.0256 89.2477 58.8492 89.0731C58.4982 88.7221 58.4982 88.1515 58.8492 87.8005L95.1768 51.4747C95.364 51.2875 95.6304 51.1867 95.8932 51.2137L106.587 52.1857C107.082 52.2307 107.447 52.6681 107.402 53.1631C107.357 53.6581 106.886 54.0307 106.425 53.9785L96.1488 53.0443L60.1218 89.0713C59.9472 89.2477 59.7168 89.3359 59.4864 89.3359ZM125.138 55.6759C125.109 55.6759 125.082 55.6759 125.055 55.6723L117.373 54.9739C116.878 54.9289 116.51 54.4897 116.557 53.9965C116.6 53.5015 117.081 53.1343 117.535 53.1811L125.217 53.8795C125.712 53.9245 126.079 54.3637 126.032 54.8569C125.989 55.3231 125.595 55.6759 125.138 55.6759ZM114.106 54.6715C114.077 54.6715 114.05 54.6715 114.023 54.6679L110.065 54.3079C109.57 54.2629 109.204 53.8255 109.249 53.3305C109.292 52.8355 109.778 52.4791 110.227 52.5151L114.185 52.8751C114.68 52.9201 115.045 53.3575 115 53.8525C114.957 54.3205 114.563 54.6715 114.106 54.6715Z" fill="#472B29"/>
<path d="M113.206 73.2637C111.452 73.2637 109.804 72.5815 108.567 71.3431C107.329 70.1047 106.646 68.4577 106.646 66.7027C106.646 64.9495 107.33 63.3007 108.567 62.0623C111.042 59.5873 115.371 59.5873 117.846 62.0623C119.084 63.3007 119.767 64.9477 119.767 66.7009C119.767 68.4559 119.084 70.1029 117.846 71.3413C116.608 72.5833 114.959 73.2637 113.206 73.2637ZM113.206 62.6635C112.126 62.6635 111.11 63.0829 110.349 63.8443C109.586 64.6075 109.166 65.6227 109.166 66.7027C109.166 67.7845 109.586 68.7997 110.349 69.5611C111.872 71.0875 114.541 71.0839 116.064 69.5611C116.827 68.7997 117.247 67.7845 117.247 66.7027C117.247 65.6227 116.827 64.6075 116.064 63.8461C115.303 63.0829 114.286 62.6635 113.206 62.6635Z" fill="#472B29"/>
<path d="M91.5462 98.9012C97.0476 98.9012 101.507 94.4414 101.507 88.94C101.507 83.4385 97.0476 78.9788 91.5462 78.9788C86.0448 78.9788 81.585 83.4385 81.585 88.94C81.585 94.4414 86.0448 98.9012 91.5462 98.9012Z" fill="#FCC938"/>
<path d="M91.5462 99.3456C88.8804 99.3456 86.2146 98.3304 84.1842 96.3018C82.2168 94.3362 81.135 91.7208 81.135 88.9398C81.135 86.1588 82.2186 83.5434 84.1842 81.5778C86.1498 79.6122 88.7652 78.5286 91.5462 78.5286C94.3272 78.5286 96.9408 79.6122 98.9082 81.5778C100.876 83.5434 101.957 86.1588 101.957 88.9398C101.957 91.7208 100.874 94.3362 98.9082 96.3018C96.8778 98.3304 94.2138 99.3456 91.5462 99.3456ZM91.5462 79.4322C89.109 79.4322 86.6754 80.3592 84.8214 82.2132C81.1116 85.923 81.1116 91.9566 84.8214 95.6646C88.5312 99.3726 94.563 99.3744 98.2728 95.6646C101.983 91.9548 101.983 85.9212 98.2728 82.2132C96.417 80.3592 93.9834 79.4322 91.5462 79.4322Z" fill="#472B29"/>
<path d="M91.548 96.0174L91.3446 96.0156C91.0962 96.0084 90.9 95.8014 90.9072 95.553C90.9144 95.3046 91.107 95.0652 91.3698 95.1156L91.5498 95.1174C93.2112 95.1174 94.7646 94.4784 95.9256 93.3174C96.102 93.141 96.3864 93.141 96.5628 93.3174C96.7392 93.4938 96.7392 93.7782 96.5628 93.9546C95.229 95.2848 93.4488 96.0174 91.548 96.0174ZM85.5918 92.3202C85.4244 92.3202 85.2642 92.2266 85.1868 92.0664C84.717 91.1052 84.4704 90.0234 84.4704 88.9398C84.4704 87.0372 85.203 85.257 86.5332 83.925C87.6114 82.8468 89.0352 82.134 90.5454 81.9198C90.7812 81.8838 91.0188 82.0566 91.053 82.3014C91.0872 82.5462 90.918 82.7748 90.6714 82.8108C89.3556 82.998 88.11 83.6208 87.1704 84.5622C86.0094 85.725 85.3704 87.2784 85.3704 88.9398C85.3704 89.8884 85.5864 90.8334 85.9968 91.674C86.1066 91.8972 86.013 92.1654 85.7898 92.2752C85.725 92.3058 85.6584 92.3202 85.5918 92.3202Z" fill="#472B29"/>
<path d="M100.703 80.2333C100.588 80.2333 100.472 80.1901 100.384 80.1019C100.208 79.9255 100.208 79.6411 100.384 79.4647L103.201 76.6477C103.378 76.4713 103.662 76.4713 103.838 76.6477C104.015 76.8241 104.015 77.1085 103.838 77.2849L101.021 80.1001C100.933 80.1883 100.82 80.2333 100.703 80.2333Z" fill="#472B29"/>
<path d="M108.482 89.3897H104.497C104.249 89.3897 104.047 89.1881 104.047 88.9397C104.047 88.6913 104.249 88.4897 104.497 88.4897H108.482C108.731 88.4897 108.932 88.6913 108.932 88.9397C108.932 89.1881 108.729 89.3897 108.482 89.3897Z" fill="#472B29"/>
<path d="M103.522 101.363C103.406 101.363 103.291 101.32 103.203 101.232L100.386 98.415C100.21 98.2386 100.21 97.9542 100.386 97.7778C100.562 97.6014 100.847 97.6014 101.023 97.7778L103.84 100.595C104.017 100.771 104.017 101.056 103.84 101.232C103.752 101.32 103.637 101.363 103.522 101.363Z" fill="#472B29"/>
<path d="M91.5462 106.324C91.2978 106.324 91.0962 106.123 91.0962 105.874V101.891C91.0962 101.643 91.2978 101.441 91.5462 101.441C91.7946 101.441 91.9962 101.643 91.9962 101.891V105.874C91.9962 106.123 91.7946 106.324 91.5462 106.324Z" fill="#472B29"/>
<path d="M79.5726 101.363C79.4574 101.363 79.3422 101.32 79.254 101.232C79.0776 101.056 79.0776 100.771 79.254 100.595L82.071 97.7778C82.2474 97.6014 82.5318 97.6014 82.7082 97.7778C82.8846 97.9542 82.8846 98.2386 82.7082 98.415L79.8912 101.232C79.803 101.32 79.6878 101.363 79.5726 101.363Z" fill="#472B29"/>
<path d="M78.597 89.3897H74.6118C74.3634 89.3897 74.1618 89.1881 74.1618 88.9397C74.1618 88.6913 74.3634 88.4897 74.6118 88.4897H78.597C78.8454 88.4897 79.047 88.6913 79.047 88.9397C79.047 89.1881 78.8454 89.3897 78.597 89.3897Z" fill="#472B29"/>
<path d="M82.3896 80.2333C82.2744 80.2333 82.1592 80.1901 82.071 80.1019L79.254 77.2849C79.0776 77.1085 79.0776 76.8241 79.254 76.6477C79.4304 76.4713 79.7148 76.4713 79.8912 76.6477L82.7082 79.4647C82.8846 79.6411 82.8846 79.9255 82.7082 80.1019C82.62 80.1883 82.5066 80.2333 82.3896 80.2333Z" fill="#472B29"/>
<path d="M91.5462 76.4406C91.2978 76.4406 91.0962 76.239 91.0962 75.9906V72.0054C91.0962 71.757 91.2978 71.5554 91.5462 71.5554C91.7946 71.5554 91.9962 71.757 91.9962 72.0054V75.9906C91.9962 76.239 91.7946 76.4406 91.5462 76.4406Z" fill="#472B29"/>
</svg>
